<svg x="-190px" y="-49px" width="38.0074mm" height="9.8882mm" viewBox="-190 -49 380 98" xmlns="http://www.w3.org/2000/svg" xmlns:xlink="http://www.w3.org/1999/xlink">
	<path d=" M-170.386,8.49772 L-158.386,8.49772 L-158.386,19.4311 L-164.972,19.4311 C-166.339,22.0786 -166.314,25.3303 -166.27,30.8948 C-166.262,31.9622 -166.253,33.1147 -166.253,34.3644 L-166.253,48.4977 L-187.186,48.4977 L-187.186,34.4977 C-187.186,26.9321 -184.449,22.3496 -181.29,19.4311 L-189.853,19.4311 C-191.719,-2.70228 -180.929,-13.9023 -158.653,-13.9023 C-137.842,-13.9023 -126.919,-4.3072 -126.919,11.5644 L-126.919,48.3644 L-147.719,48.2311 L-147.719,11.5644 C-147.719,5.02561 -151.976,0.897717 -158.653,0.897717 C-164.254,0.897717 -170.386,3.69772 -170.386,8.49772 Z  M-130.529,-39.2524 C-130.529,-36.2589 -131.498,-34.0614 -133.425,-32.2428 L-114.453,-32.2428 L-114.453,-20.8143 L-157.272,-20.8143 L-157.272,-29.5381 L-157.091,-29.5671 L-157.195,-29.5762 C-157.14,-29.5762 -157.085,-29.5764 -157.031,-29.5768 L-152.394,-30.3215 C-150.045,-31.2219 -148.967,-32.8549 -148.967,-34.7571 C-148.967,-38.0342 -152.091,-39.2524 -156.967,-37.8809 L-157.272,-47.2524 C-144.395,-51.0619 -130.529,-50.7574 -130.529,-39.2524 Z  M-115.528,-10.2248 C-100.541,-15.3715 -73.3413,-19.2925 -73.3413,6.7352 L-73.3413,48.4685 L-94.1413,48.4685 L-94.1413,10.6019 C-94.1413,-2.25453 -102.675,-0.411465 -112.221,3.50854 Z  M-62.7546,-8.50264 C-43.0213,-17.8893 -7.07462,-18.8549 -7.07462,17.9507 C-7.07462,53.258 -42.7013,54.2173 -62.2213,43.3374 L-55.9813,29.9507 C-43.3946,37.9507 -27.9279,36.3161 -27.9279,18.0574 C-27.9279,0.123486 -41.6346,-3.16931 -56.0346,5.25736 Z  M2.75655,-12.7336 L23.8766,-12.7336 L23.8766,8.93424 L41.4766,-7.61359 C45.9566,-11.5603 48.515,-12.7336 63.5565,-12.7336 L63.5565,2.83974 C54.271,2.83974 53.5299,3.79974 50.4366,6.25307 L48.8164,7.66164 C58.9512,9.53984 64.1965,16.7803 64.1965,28.2264 L64.1965,48.1731 L43.3965,48.2797 L43.3965,29.7198 C43.3965,24.634 41.8772,20.1894 36.5476,18.3282 L23.8766,29.3444 L23.8766,48.1731 L2.75655,48.2797 L2.75655,-12.7336 Z  M97.3522,24.1552 C97.3522,37.1329 113.371,35.3061 118.419,26.5208 L118.419,-12.7515 L138.686,-12.7515 L138.686,48.4752 L118.419,48.3685 L118.419,39.4018 C107.704,55.5576 76.7122,52.2859 76.7122,27.9418 L76.5788,-12.7515 L97.3522,-12.7515 L97.3522,24.1552 Z  M114.411,-34.7571 C114.411,-38.0342 111.287,-39.2524 106.411,-37.8809 L106.106,-47.2524 C118.983,-51.0619 132.849,-50.7574 132.849,-39.2524 C132.849,-36.2589 131.88,-34.0614 129.953,-32.2428 L148.925,-32.2428 L148.925,-20.8143 L106.106,-20.8143 L106.106,-29.5381 L106.287,-29.5671 L106.183,-29.5762 C106.238,-29.5762 106.293,-29.5764 106.348,-29.5768 L110.984,-30.3215 C113.333,-31.2219 114.411,-32.8549 114.411,-34.7571 Z  M147.85,-10.2248 C162.837,-15.3715 190.037,-19.2925 190.037,6.7352 L190.037,48.4685 L169.237,48.4685 L169.237,10.6019 C169.237,-2.25453 160.703,-0.411465 151.157,3.50854 Z " fill="#e8a900" fill-opacity="1" visibility="visible" fill-type="0" fill-subtype="0" fill-angle="0" fill-density="0" fill-size="0" fill-spacing="0" fill-pitch="-4.5166e+32" fill-pull-compensate="8.96831e-44" stroke-type="-172874240" stroke-subtype="64" stroke-offset="4.59908e-38" stroke-size="4.62337e-38" stroke-density="4.62326e-38" stroke-spacing="0" stroke-pitch="0" stroke-pull-compensate="0" role-type="0" role-offset="0" />
</svg>
