<svg x="-105px" y="-52px" width="21.0938mm" height="10.5181mm" viewBox="-105 -52 210 105" xmlns="http://www.w3.org/2000/svg" xmlns:xlink="http://www.w3.org/1999/xlink">
	<path d=" M-65.2699,-51.152 C-61.0202,-53.2352 -57.1871,-53.3185 -55.1872,-50.4854 L-54.2706,-48.4855 C-53.0207,-43.9025 -55.7705,-42.2359 -59.6869,-40.5693 C-61.3329,-39.8689 -63.3989,-38.961 -65.7187,-37.9272 C-57.1928,-28.2922 -55.1368,1.59241 -62.0201,11.1783 C-68.1842,19.7627 -84.8777,18.8053 -88.685,9.51175 C-90.587,4.86896 -89.718,-8.24736 -88.8427,-18.56 C-89.4939,-18.3576 -90.2433,-18.2274 -91.0618,-18.2274 C-111.895,-18.2274 -108.729,-47.3921 -90.8119,-47.3921 C-86.6382,-47.3921 -81.4592,-45.0246 -79.2633,-40.0096 L-79.269,-40.0694 C-74.3526,-44.8191 -69.2298,-49.2108 -65.2699,-51.152 Z  M-78.3399,-32.2344 C-78.8658,-24.3083 -78.4883,-2.14384 -77.8524,2.09557 C-77.3524,5.42869 -74.9241,5.62624 -74.0193,2.67887 C-72.0143,-3.8523 -73.0854,-27.6249 -77.3815,-32.669 C-77.701,-32.5242 -78.0206,-32.3793 -78.3399,-32.2344 Z  M-88.0636,-27.572 C-87.9334,-29.2127 -87.8517,-30.5073 -87.8517,-31.3199 C-87.8517,-33.1731 -88.6389,-34.4763 -90.8119,-34.4763 C-94.9816,-34.4763 -96.4849,-26.6435 -90.9785,-26.6435 C-89.9347,-26.6435 -88.8936,-26.9858 -88.0636,-27.572 Z  M-26.5362,-31.8889 C-26.1873,-32.0334 -25.8522,-32.1813 -25.5338,-32.3327 C-21.9031,-34.0588 -18.9866,-35.0111 -17.0224,-32.8684 L-15.9511,-31.0828 C-14.7607,-27.3926 -16.4272,-24.6547 -20.0579,-21.9168 C-23.9767,-18.9616 -30.2356,-16.56 -38.3901,-16.56 C-55.9566,-16.56 -54.2281,-41.4988 -38.8662,-41.4988 C-32.1395,-41.4988 -26.9838,-38.5321 -26.5362,-31.8889 Z  M-36.7654,-29.0226 C-36.8075,-30.8531 -37.3154,-32.5708 -38.9853,-32.5708 C-41.7373,-32.5708 -41.7486,-28.702 -38.4496,-28.702 C-37.9269,-28.7963 -37.3614,-28.9033 -36.7654,-29.0226 Z  M-36.7654,2.76736 C-37.3614,2.88662 -37.9269,2.99365 -38.4496,3.08791 C-41.7486,3.08791 -41.7373,-0.780891 -38.9853,-0.780891 C-37.3154,-0.780891 -36.8075,0.936851 -36.7654,2.76736 Z  M-38.8662,-9.70887 C-32.1395,-9.70887 -26.9838,-6.74215 -26.5362,-0.0990172 C-26.1873,-0.243444 -25.8522,-0.391419 -25.5338,-0.542812 C-21.9031,-2.26889 -18.9866,-3.22121 -17.0224,-1.07849 L-15.9511,0.707108 C-14.7607,4.39734 -16.4272,7.13526 -20.0579,9.87317 C-23.9767,12.8283 -30.2356,15.23 -38.3901,15.23 C-55.9566,15.23 -54.2281,-9.70887 -38.8662,-9.70887 Z  M5.77361,-23.8614 C4.19037,-22.4449 1.60827,-21.4449 -1.64258,-21.4449 C-23.5584,-21.4449 -18.7438,-50.5264 -0.47599,-50.5264 C14.3334,-50.5264 15.4396,-38.6679 15.4396,-28.8611 C15.4396,-25.1114 14.5647,-3.32007 14.398,-0.736904 C14.3174,0.513187 14.9242,0.843014 15.8146,-0.403603 C17.0645,-2.15348 18.5217,-7.23665 21.6892,-7.23665 C25.3566,-7.23665 25.8973,-1.07022 27.5638,1.0963 C28.5607,2.39222 29.1713,2.23554 29.397,0.429676 C29.5637,-0.903561 29.4526,-3.01455 29.4526,-4.26445 C29.4526,-6.26662 28.8293,-36.3926 28.7304,-39.1521 C28.5291,-44.7716 29.0076,-49.3181 35.1467,-50.2069 L38.8131,-50.318 C46.5876,-50.0125 46.7895,-44.2226 47.1459,-39.902 C47.4536,-36.1712 47.8837,-7.58207 47.7014,-3.68116 C47.5004,0.619553 47.3125,7.76254 43.8961,11.679 C39.3049,16.942 28.7602,16.4465 24.1891,12.9705 C22.642,11.7941 21.9392,9.12067 21.0226,7.62077 C20.2726,8.53738 19.5384,11.1871 17.7311,12.1789 C11.2519,15.7345 2.60713,13.1788 1.02391,5.42936 C-0.211388,-0.617085 1.94052,-22.8615 1.94052,-29.0278 C1.94052,-35.3184 1.69166,-40.9436 -1.3926,-40.9436 C-5.56767,-40.9436 -5.65488,-33.1108 -1.22594,-33.1108 C0.942177,-33.1108 1.85719,-33.4441 2.69046,-33.6941 Z  M90.6282,12.0186 C86.3956,4.91842 83.1475,-13.3602 76.7108,-13.3602 C74.699,-13.3602 73.6873,-9.35102 73.1812,-5.06628 C78.1294,-5.83512 85.5991,-2.29047 85.5991,7.06951 C85.5991,13.8208 82.4117,19.7355 74.0026,19.7355 C67.336,19.7355 60.6007,13.3908 60.6007,3.87527 C60.6007,-5.15298 65.2052,-23.2424 76.8496,-22.2485 C82.496,-21.7666 86.7857,-16.7397 90.3504,-9.62605 C90.8509,-17.6811 91.299,-25.9923 90.6682,-28.9012 C89.3135,-35.1479 83.933,-37.4423 78.3773,-37.4423 C73.6533,-37.4423 72.4749,-34.0398 71.3639,-31.3316 C71.3101,-31.2003 71.2558,-31.0671 71.201,-30.9323 C69.8886,-27.7073 68.219,-23.6045 62.7534,-24.8043 L60.0452,-26.0542 C57.6148,-27.7902 56.5787,-30.8272 58.3092,-36.4702 C59.9063,-41.6782 67.4049,-50.0804 78.169,-50.0804 C88.3767,-50.0804 99.4096,-47.6847 103.792,-34.1786 C105.717,-28.2483 105.504,-5.35872 105.414,4.36318 C105.4,5.84995 105.389,7.02877 105.389,7.79186 C105.389,12.3754 102.681,15.4997 99.0704,15.6386 L95.8762,15.5691 C92.6875,15.2878 91.4071,14.2257 90.6282,12.0186 Z  M72.7082,2.20458 C72.6885,3.06264 72.6833,3.78145 72.6833,4.29191 C72.6833,7.90879 73.0983,11.6805 74.5581,11.6805 C76.0164,11.6805 76.8496,8.11111 76.8496,6.72231 C76.8496,2.68656 74.5429,1.23924 72.7082,2.20458 Z  M81.9348,39.2982 C77.5899,46.0834 63.9003,44.3661 63.9003,32.6914 C63.9003,24.7122 69.8512,20.9065 76.0424,20.9065 C84.7957,20.9065 87.252,27.9295 87.0536,32.9891 C86.9345,36.0245 86.3801,40.4029 87.7678,40.7862 C88.1307,40.8864 88.8372,40.8421 89.3748,40.5481 C90.1458,40.1264 90.1486,39.2386 90.1486,38.4649 C90.1486,36.7729 89.6724,32.3947 89.6724,30.3107 C89.6724,24.0387 91.9937,22.0969 95.2673,21.7398 L98.0648,21.7398 C102.886,21.9183 104.552,25.1916 104.552,30.1321 C104.552,32.3351 104.508,35.9043 104.433,39.3577 C104.374,42.0956 103.838,46.9167 101.219,49.5356 C97.4361,53.3187 85.967,53.3002 82.0539,50.6069 C76.9565,47.0986 78.3637,37.0346 78.3637,32.9891 C78.3637,30.905 77.7185,29.894 76.0424,29.894 C74.4342,29.894 74.0187,31.2034 74.0187,32.5129 C74.0187,36.0273 77.4709,35.3103 79.435,34.0604 Z " fill="#e8a900" fill-opacity="1" visibility="visible" fill-type="0" fill-subtype="0" fill-angle="0" fill-density="0" fill-size="0" fill-spacing="0" fill-pitch="-4.5166e+32" fill-pull-compensate="8.96831e-44" stroke-type="-172874240" stroke-subtype="64" stroke-offset="4.59908e-38" stroke-size="4.62337e-38" stroke-density="4.62326e-38" stroke-spacing="0" stroke-pitch="0" stroke-pull-compensate="0" role-type="0" role-offset="0" />
</svg>
