<svg x="-175px" y="-47px" width="35.1849mm" height="9.52304mm" viewBox="-175 -47 351 95" xmlns="http://www.w3.org/2000/svg" xmlns:xlink="http://www.w3.org/1999/xlink">
	<path d=" M-157.08,27.8985 C-152.725,24.0763 -143.747,26.0315 -143.747,35.8097 C-143.747,40.613 -147.125,47.0986 -159.658,47.0986 C-168.637,47.0986 -175.925,41.4132 -175.925,31.2763 C-175.925,21.0541 -167.297,2.72984 -166.147,-6.14589 C-165.525,-10.9459 -166.413,-14.057 -169.88,-14.5903 L-165.702,-15.8348 C-158.325,-17.3459 -150.147,-15.1253 -150.147,-5.43478 C-150.147,1.23721 -160.191,24.3849 -160.191,33.2319 C-160.191,37.0541 -159.681,39.8853 -156.636,40.7874 C-153.381,41.7515 -150.553,38.035 -150.236,35.0097 C-149.845,31.2873 -152.191,28.1652 -158.325,29.5874 Z  M-108.182,32.0968 C-108.157,31.8819 -108.123,31.6398 -108.079,31.373 C-109.404,23.7281 -115.086,13.9543 -119.898,12.7875 C-123.696,11.8666 -127.29,13.9352 -126.92,17.7653 C-126.42,22.9378 -120.698,24.1653 -116.698,22.3875 L-118.031,24.4319 C-124.609,31.2764 -134.203,27.6508 -134.12,17.0542 C-134.048,7.80316 -124.592,4.98493 -117.853,6.65416 C-111.481,8.23269 -107.454,13.0028 -105.166,19.2447 C-103.52,13.0611 -101.739,6.70402 -101.302,4.54119 C-100.132,-1.249 -100.911,-8.31214 -108.36,-10.4632 C-114.129,-12.1292 -119.755,-9.97523 -122.671,-6.90769 C-125.94,-3.46949 -120.253,1.8923 -112.893,-0.169922 L-115.151,1.71452 C-132.947,12.079 -145.129,-0.0401611 -132.965,-11.1566 C-128.442,-15.2897 -115.542,-18.0544 -104.876,-15.4944 C-96.1698,-13.405 -82.952,-7.84371 -84.9112,5.69675 C-85.3575,8.78162 -91.0716,30.7521 -92.1289,35.5101 C-92.2182,35.9119 -92.3293,36.3635 -92.4492,36.8508 C-93.1884,39.8561 -94.2611,44.217 -92.6089,46.6034 L-96.7689,47.1368 C-107.329,47.4567 -109.036,39.4568 -108.182,32.0968 Z  M-111.929,-33.3476 C-114.929,-28.8142 -124.329,-30.2711 -124.329,-38.4142 C-124.329,-42.683 -119.595,-47.6142 -112.062,-47.6142 C-98.2516,-47.6142 -94.1953,-39.6809 -98.3952,-32.6142 C-97.3286,-32.8809 -93.901,-34.222 -90.3952,-36.0142 C-83.9918,-39.2879 -74.5362,-45.2809 -65.3286,-45.2809 C-58.3235,-45.2809 -54.5286,-40.4142 -52.8619,-36.0809 L-51.7952,-32.5476 C-54.0619,-34.2809 -57.9286,-36.1476 -63.5952,-35.1476 C-69.3286,-34.2142 -79.5953,-30.4809 -87.1952,-27.7476 C-96.6481,-24.3479 -106.329,-23.5476 -111.662,-27.0809 C-108.595,-32.0142 -105.729,-42.6142 -112.462,-43.3476 C-114.971,-43.6208 -117.929,-41.015 -117.929,-38.1476 C-117.929,-34.8809 -114.729,-32.8142 -110.795,-35.0809 Z  M-57.4101,9.26677 C-66.4768,18.2268 -80.7702,14.1561 -80.7702,0.39566 C-80.7702,-11.255 -69.4749,-16.6428 -58.4768,-16.4577 C-37.3546,-16.1021 -34.6834,-0.539612 -35.6235,6.36899 C-36.348,11.6934 -41.8979,29.7112 -42.0857,35.2757 C-42.2279,39.489 -41.4724,43.169 -37.2057,43.8446 L-40.6279,45.9779 C-52.0768,50.3512 -61.3287,44.099 -58.5302,31.329 C-56.2225,20.799 -52.1214,6.93741 -51.2768,2.95566 C-49.7835,-4.08434 -50.1543,-11.231 -59.1168,-11.231 C-64.0246,-11.231 -68.5568,-6.21768 -67.7035,0.82233 C-67.2014,4.96431 -62.1035,9.37344 -55.8101,6.70677 Z  M1.50671,32.0968 C1.53163,31.8819 1.56626,31.6398 1.60978,31.373 C0.28524,23.7281 -5.39656,13.9543 -10.2088,12.7875 C-14.0069,11.8666 -17.6014,13.9352 -17.2311,17.7653 C-16.7309,22.9378 -11.0088,24.1653 -7.00883,22.3875 L-8.34218,24.4319 C-14.92,31.2764 -24.5138,27.6508 -24.4311,17.0542 C-24.3588,7.80316 -14.9032,4.98493 -8.1644,6.65416 C-1.79184,8.23269 2.2351,13.0028 4.52341,19.2447 C6.16937,13.0611 7.94951,6.70402 8.38672,4.54119 C9.55719,-1.249 8.77783,-8.31214 1.32893,-10.4632 C-4.44,-12.1292 -10.066,-9.97523 -12.9822,-6.90769 C-16.2507,-3.46949 -10.5644,1.8923 -3.20441,-0.169922 L-5.46217,1.71452 C-23.2577,12.079 -35.4404,-0.0401611 -23.2755,-11.1566 C-18.7526,-15.2897 -5.85329,-18.0544 4.81339,-15.4944 C13.5192,-13.405 26.737,-7.84371 24.7778,5.69675 C24.3315,8.78162 18.6174,30.7521 17.5601,35.5101 C17.4708,35.9119 17.3597,36.3635 17.2398,36.8508 C16.5006,39.8561 15.4279,44.217 17.0801,46.6034 L12.92,47.1368 C2.36006,47.4567 0.653381,39.4568 1.50671,32.0968 Z  M50.3154,23.1286 C55.2221,24.622 59.5584,22.2433 60.1287,17.4753 C60.6536,13.0866 57.8887,8.19528 51.4887,12.3553 C47.1211,15.1942 41.9557,25.2804 47.5421,36.0353 C51.2613,43.1956 59.2754,42.3286 64.8221,36.7819 C73.1697,28.4343 78.7954,7.12861 71.6487,-4.60472 C66.388,-13.2418 50.5805,-12.4397 49.9954,-6.41805 C49.611,-2.46178 55.1154,-1.40472 59.4887,-2.47139 L58.1021,-0.764721 C50.3154,5.20861 29.1325,4.83579 35.2754,-8.12472 C39.0379,-16.063 62.1658,-20.6986 78.4754,-11.3781 C97.2171,-0.667595 96.8084,32.3212 73.4621,44.1419 C60.8221,50.5418 46.7484,46.4868 42.8487,44.6753 C21.5705,34.7906 27.5005,8.41561 45.1954,4.24861 C59.612,0.853634 67.7021,9.45285 67.7021,17.9019 C67.7021,26.6493 56.8221,30.8086 51.8087,25.3686 Z  M102.653,-2.89102 C102.653,-9.57421 107.252,-15.9511 116.253,-16.651 C131.116,-17.8066 139.007,-5.52231 136.093,14.4956 C135.362,19.5182 134.071,24.1788 132.326,28.3108 C133.777,34.2673 141.12,43.0693 144.725,29.0912 C146.329,22.8701 148.889,1.57541 152.902,-6.64212 C157.734,-16.5356 162.679,-18.2866 171.036,-15.3532 L175.925,-13.0421 C171.48,-12.1533 169.791,-8.59768 168.102,-3.35324 C166.379,1.99794 163.842,21.0279 160.458,32.2912 C154.004,53.773 134.275,48.4395 128.464,35.5271 C124.585,41.2965 119.592,45.2266 114.013,46.4956 C103.208,48.9538 94.9659,43.4551 93.6757,35.3845 C92.2137,26.2389 97.4084,17.749 106.6,17.749 C113.757,17.749 115.365,22.4245 114.085,25.9623 L113.107,27.4734 C112.911,23.7223 110.578,22.2686 107.258,22.7445 C103.535,23.2781 99.5747,29.6377 100.271,34.5134 C100.805,38.2467 104.858,42.069 110.902,36.4334 C115.179,32.446 118.387,21.9979 119.987,13.429 C121.914,3.11 121.977,-9.66456 115.507,-9.82436 C112.309,-9.90332 109.422,-6.22939 109.96,-2.67769 C110.493,0.843437 114.173,3.68675 119.667,1.69565 L118.173,3.61565 C114.902,7.66898 102.653,9.14613 102.653,-2.89102 Z " fill="#e8a900" fill-opacity="1" visibility="visible" fill-type="0" fill-subtype="0" fill-angle="0" fill-density="0" fill-size="0" fill-spacing="0" fill-pitch="-4.5166e+32" fill-pull-compensate="8.96831e-44" stroke-type="-172874240" stroke-subtype="64" stroke-offset="4.59908e-38" stroke-size="4.62337e-38" stroke-density="4.62326e-38" stroke-spacing="0" stroke-pitch="0" stroke-pull-compensate="0" role-type="0" role-offset="0" />
</svg>
