<svg x="-109px" y="-45px" width="21.8373mm" height="9.06696mm" viewBox="-109 -45 218 90" xmlns="http://www.w3.org/2000/svg" xmlns:xlink="http://www.w3.org/1999/xlink">
	<path d=" M-51.7643,-6.75702 L-47.4977,-19.0237 L-80.2088,-16.0015 L-84.4754,-2.66814 L-50.3421,9.24298 L-57.8088,29.1541 L-109.187,31.643 L-103.498,10.843 L-92.6532,12.9763 L-95.8532,20.9763 L-73.9865,18.3096 L-71.1421,12.6208 L-102.609,3.73187 L-91.0532,-42.6681 L-28.6532,-45.3348 L-40.5643,-8.35702 Z  M-20.1466,-15.643 L-15.5244,-32.8874 L5.09786,-34.1319 L0.475647,-17.4208 L-20.1466,-15.643 Z  M-38.4577,37.157 L-23.3466,-6.75409 L-3.07991,-8.53187 L-21.9244,32.1792 L-38.4577,37.157 Z  M40.5644,-31.1096 L11.5867,41.2459 L-5.12446,45.3348 L18.52,-28.9763 Z  M47.8532,-21.951 L109.187,-28.7066 L77.3643,43.8267 L67.4087,45.0712 L72.4456,27.416 L38.431,32.8045 L30.0754,25.8712 L42.8754,0.448948 L81.4289,-4.0717 L84.6532,-15.3733 L56.3865,-13.0622 L54.2532,-8.26216 L42.6976,-7.1955 L47.8532,-21.951 Z  M74.5563,20.0178 L77.3205,10.3288 L50.6976,12.1823 L45.1865,22.1378 L47.3199,23.3823 L74.5563,20.0178 Z " fill="#e8a900" fill-opacity="1" visibility="visible" fill-type="0" fill-subtype="0" fill-angle="0" fill-density="0" fill-size="0" fill-spacing="0" fill-pitch="-13.897" fill-pull-compensate="1.79366e-43" stroke-type="-1050781184" stroke-subtype="128" stroke-offset="4.59908e-38" stroke-size="4.62337e-38" stroke-density="4.62326e-38" stroke-spacing="0" stroke-pitch="0" stroke-pull-compensate="0" role-type="0" role-offset="0" />
</svg>
