<svg x="-136px" y="-51px" width="27.3468mm" height="10.2394mm" viewBox="-136 -51 273 102" xmlns="http://www.w3.org/2000/svg" xmlns:xlink="http://www.w3.org/1999/xlink">
	<path d=" M-122.76,-46.396 C-119.857,-45.5356 -115.91,-46.747 -111.282,-48.1679 C-106.729,-49.5654 -101.517,-51.1655 -95.9871,-51.196 C-78.3842,-51.196 -71.1338,-41.4905 -71.1338,-31.4627 C-71.1338,-21.6028 -77.4997,-16.2235 -84.975,-13.8871 C-79.6656,-9.74512 -75.8284,-3.64826 -76.6805,2.45733 C-79.0657,19.5491 -95.1338,22.084 -104.734,21.0173 C-110.309,20.3979 -115.394,19.2341 -120.127,18.1506 C-126.049,16.7952 -131.422,15.5654 -136.52,15.684 L-136.734,15.1507 C-135.103,12.8904 -133.404,11.1608 -131.662,9.85377 C-130.745,6.5353 -129.74,3.22224 -128.734,0.0039978 L-118.814,-35.4093 C-118.284,-37.8213 -118.371,-39.7791 -119.164,-41.5868 C-120.442,-42.625 -121.716,-43.9253 -122.974,-45.5427 L-122.76,-46.396 Z  M-119.049,6.23025 C-116.015,6.35555 -113.013,6.95421 -110.154,7.52435 C-107.399,8.0737 -104.777,8.59658 -102.387,8.644 C-94.4575,8.80135 -91.0344,4.37249 -90.0138,0.217331 C-88.5205,-5.86267 -93.3223,-11.5785 -99.1871,-12.5827 C-103.008,-13.2369 -106.76,-11.6227 -108.36,-9.06267 L-108.787,-9.48933 C-108.467,-15.4627 -103.024,-19.0893 -98.3338,-19.0893 C-97.9108,-19.0893 -97.4822,-19.0702 -97.0495,-19.0327 C-90.0982,-21.5245 -85.2138,-24.1782 -85.2138,-31.036 C-85.2138,-34.6741 -89.1775,-39.4627 -96.8405,-39.4627 C-98.1278,-39.4627 -99.6602,-39.143 -101.372,-38.7858 C-102.188,-38.6156 -103.045,-38.4368 -103.936,-38.2801 L-104.627,-35.4093 L-114.227,0.0039978 C-115.237,3.80891 -116.981,5.23962 -119.049,6.23025 Z  M-59.8449,-13.1577 C-62.2449,-12.5355 -64.8227,-14.1355 -65.7116,-16.2689 L-66.2449,-18.6689 C-66.6894,-21.78 -64.7338,-25.2466 -62.6005,-27.0244 C-61.6227,-25.0689 -60.3787,-24.3632 -57.356,-24.6244 C-47.2707,-25.496 -43.4894,-19.6466 -46.1561,-8.97997 C-46.7521,-6.5957 -47.5433,-3.99464 -48.2988,-1.51067 C-49.6538,2.94406 -50.8943,7.02217 -50.6894,8.7978 C-49.9077,15.5724 -42.167,15.3032 -35.7596,5.9999 L-29.9783,-14.798 C-27.0324,-24.9823 -20.261,-25.045 -14.4939,-25.0984 C-14.1704,-25.1014 -13.8501,-25.1044 -13.5338,-25.1091 L-13.0005,-24.7535 C-15.8449,-23.1535 -17.5338,-20.398 -18.956,-14.8869 L-25.8005,10.3576 C-26.956,15.2465 -26.0672,18.8909 -22.4227,19.9576 L-22.2449,20.4909 C-28.6565,23.6614 -35.5706,20.7447 -36.9673,14.9279 C-44.6101,24.8343 -55.1531,21.5238 -58.8672,16.8867 C-64.6147,9.71067 -60.8831,0.0863863 -57.8804,-7.65809 C-57.4768,-8.69916 -57.0863,-9.70625 -56.7338,-10.6689 C-54.4227,-16.98 -56.2005,-19.4689 -57.7116,-19.4689 C-60.1473,-19.4689 -60.1116,-16.6244 -59.8449,-13.1577 Z  M-8.4355,-27.111 C-7.45772,-25.3332 -5.83975,-24.5468 -3.10216,-24.7998 C3.34836,-25.3961 6.81627,-22.7035 8.08312,-18.4061 C9.62138,-20.3365 15.2717,-25.0173 20.8978,-25.1554 C31.3042,-25.4108 36.9867,-16.2665 33.5201,-4.17762 C31.9312,1.36315 29.5579,7.2236 28.5423,12.3557 C27.1612,19.3351 27.7423,23.5557 31.209,23.8224 L31.4756,24.089 C23.8312,26.3112 15.0312,24.9779 17.3423,12.7113 C18.3212,7.51547 20.2388,1.15741 22.4979,-6.13318 C24.4534,-12.4443 23.723,-17.1399 19.3867,-17.6887 C16.9476,-17.9974 12.2316,-14.8892 9.96452,-12.6221 C9.26447,-11.922 8.67468,-10.7258 8.19517,-9.51097 C8.06894,-8.8374 7.91753,-8.15494 7.74229,-7.46651 L2.05341,12.9779 C0.00895691,20.4446 -5.94661,21.7779 -14.3022,21.6002 L-14.3911,21.0668 C-11.6355,20.089 -9.85772,16.889 -8.87994,13.0668 L-2.92438,-9.1554 C-1.14659,-15.6443 -1.11253,-18.5736 -3.90216,-18.6665 C-5.24634,-18.7113 -6.12439,-15.911 -5.50215,-13.1554 C-8.79106,-12.711 -11.0133,-14.9332 -11.7244,-16.711 L-12.1688,-19.0221 C-12.2577,-21.7776 -10.6577,-25.1554 -8.4355,-27.111 Z  M74.5149,-17.3381 C76.5062,-22.8411 80.915,-25.0754 86.5312,-25.5533 L90.9539,-25.4233 C88.2222,-23.0818 86.4011,-20.22 85.2304,-15.7972 L71.3972,33.9212 C73.958,34.5076 76.4701,34.9878 78.8499,35.2922 C89.7817,36.6904 99.6629,33.2174 98.7523,25.9328 L99.2726,26.0629 C103.695,33.4775 98.6984,45.7938 78.4596,43.8776 C75.639,43.6105 72.3022,42.9835 68.7922,42.171 C64.0644,51.4475 51.2496,51.5529 44.5605,51.0255 C13.2109,48.554 13.6076,19.1751 45.2174,26.5897 C49.4655,27.5862 55.216,29.4566 61.3152,31.2405 L64.6173,19.0375 C62.3489,20.3765 59.6119,21.2316 56.4091,21.2586 C31.0814,21.4719 35.9985,-26.2177 62.1301,-24.8551 C69.2489,-24.4839 73.0046,-21.1998 74.5149,-17.3381 Z  M70.7564,-3.6499 C69.0245,-2.48743 66.7294,-1.7404 63.6133,-1.42414 L63.3441,-1.78307 C64.719,-2.54866 64.7175,-4.60512 64.7161,-6.57957 C64.714,-9.58709 64.712,-12.4043 69.5747,-10.1792 C71.9349,-13.4926 69.3988,-18.7936 63.4761,-18.5279 C51.2263,-17.9784 44.7638,11.6916 57.3961,14.0924 C60.5219,14.6865 64.3955,11.897 67.2685,9.23983 L70.7564,-3.6499 Z  M58.5572,39.4872 C51.9497,37.6004 45.8845,35.6485 42.6158,34.7784 C24.5344,29.9654 28.5437,41.8321 45.0613,42.9605 C52.6627,43.4798 56.517,42.4618 58.5572,39.4872 Z  M123.179,-16.1477 L123.134,-16.1527 C116.699,-16.8677 108.62,-17.5897 104.201,-10.1972 C98.254,-0.251232 97.7743,12.2506 106.067,14.0695 C109.53,14.8289 113.354,13.8356 116.389,9.37366 L120.645,-6.73051 C122.512,-13.7527 128.912,-14.9083 136.378,-15.6194 L136.734,-15.5305 C134.067,-13.1305 132.556,-10.1083 131.667,-6.73051 L126.6,11.8473 C125.445,16.825 125.889,19.8473 129.978,20.2917 L130.156,20.7362 C122.467,23.2075 118.477,20.691 116.823,17.1699 C113.213,20.6931 108.828,22.0939 104.467,21.625 C84.2419,19.4509 87.1325,-6.41148 95.756,-15.7083 C105.619,-26.3409 116.583,-25.5473 124.823,-23.175 C131.368,-21.2905 135.045,-22.2861 136.112,-24.3305 L136.378,-23.975 C135.669,-14.7597 127.983,-15.6139 123.179,-16.1477 Z " fill="#e8a900" fill-opacity="1" visibility="visible" fill-type="0" fill-subtype="0" fill-angle="0" fill-density="0" fill-size="0" fill-spacing="0" fill-pitch="-13.897" fill-pull-compensate="1.79366e-43" stroke-type="-1050781184" stroke-subtype="128" stroke-offset="4.59908e-38" stroke-size="4.62337e-38" stroke-density="4.62326e-38" stroke-spacing="0" stroke-pitch="0" stroke-pull-compensate="0" role-type="0" role-offset="0" />
</svg>
