<svg x="-237px" y="-40px" width="47.4278mm" height="8.00745mm" viewBox="-237 -40 474 80" xmlns="http://www.w3.org/2000/svg" xmlns:xlink="http://www.w3.org/1999/xlink">
	<path d=" M-197.53,-27.4055 L-210.463,25.6612 L-194.063,25.6612 L-192.73,19.5278 L-182.997,-21.2722 L-181.93,-25.9388 L-222.33,-25.9388 L-228.73,-39.8055 L-173.53,-39.8055 C-164.33,-39.8055 -156.463,-34.0722 -158.463,-24.2055 L-169.93,25.2612 C-172.463,36.4612 -177.397,39.7945 -187.93,39.7945 L-237.13,39.7945 L-221.797,-27.4055 Z  M-143.741,-25.5849 L-143.886,-25.5849 L-150.419,-39.7183 L-91.7525,-39.7183 C-84.8178,-39.7183 -77.3524,-35.985 -79.8858,-24.6516 L-94.5524,39.7484 L-158.002,39.7484 L-158.419,39.9617 L-143.741,-25.5849 Z  M-119.886,-25.5849 L-131.83,26.1484 L-115.086,26.1484 L-104.952,-19.585 L-103.752,-25.5849 L-119.886,-25.5849 Z  M-13.3526,-39.7183 C-6.41798,-39.7183 1.04739,-35.985 -1.48593,-24.6516 L-16.1526,39.7484 L-79.6022,39.7484 L-80.0192,39.9617 L-65.3408,-25.5849 L-65.4859,-25.5849 L-72.0193,-39.7183 L-13.3526,-39.7183 Z  M-53.4305,26.1484 L-36.6859,26.1484 L-26.5526,-19.585 L-25.3526,-25.5849 L-41.4861,-25.5849 L-53.4305,26.1484 Z  M48.9722,-7.39727 L56.5984,-40.0373 L80.2784,-40.0373 L62.1451,39.8561 L37.9317,39.8561 L45.533,7.32273 L29.3159,7.32273 L21.9984,39.9094 L-1.89494,39.9094 L12.9584,-26.1173 L6.82506,-39.9839 L40.1584,-39.9839 L36.8251,-26.1173 L32.6214,-7.39727 L48.9722,-7.39727 Z  M148.292,-39.8294 C153.76,-39.8294 160.692,-35.4294 158.292,-24.7627 L143.358,40.0373 L118.825,40.0373 L126.382,7.50394 L110.288,7.50394 L102.936,39.9484 L79.1582,39.9484 L93.9659,-25.9627 L93.4915,-25.9627 L86.9582,-39.8294 L148.292,-39.8294 Z  M129.759,-7.02939 L132.825,-20.2294 L134.158,-25.9627 L117.871,-25.9627 L113.581,-7.02939 L129.759,-7.02939 Z  M224.78,-39.7183 C231.715,-39.7183 239.18,-35.985 236.647,-24.6516 L221.98,39.7484 L158.531,39.7484 L158.114,39.9617 L172.792,-25.5849 L172.647,-25.5849 L166.114,-39.7183 L224.78,-39.7183 Z  M184.702,26.1484 L201.447,26.1484 L211.58,-19.585 L212.78,-25.5849 L196.647,-25.5849 L184.702,26.1484 Z " fill="#e8a900" fill-opacity="1" visibility="visible" fill-type="0" fill-subtype="0" fill-angle="0" fill-density="0" fill-size="0" fill-spacing="0" fill-pitch="-13.897" fill-pull-compensate="1.79366e-43" stroke-type="-1050781184" stroke-subtype="128" stroke-offset="4.59908e-38" stroke-size="4.62337e-38" stroke-density="4.62326e-38" stroke-spacing="0" stroke-pitch="0" stroke-pull-compensate="0" role-type="0" role-offset="0" />
</svg>
